<?xml version="1.0" standalone="no"?>
<!DOCTYPE svg PUBLIC "-//W3C//DTD SVG 20010904//EN"
 "http://www.w3.org/TR/2001/REC-SVG-20010904/DTD/svg10.dtd">
<svg version="1.0" xmlns="http://www.w3.org/2000/svg"
 width="850.000000pt" height="850.000000pt" viewBox="0 0 850.000000 850.000000"
 preserveAspectRatio="xMidYMid meet">
<metadata>
Created by potrace 1.14, written by Peter Selinger 2001-2017
</metadata>
<g transform="translate(0.000000,850.000000) scale(0.100000,-0.100000)"
fill="#000000" stroke="none">
<path d="M17 8482 c-10 -10 -17 -29 -17 -42 0 -21 3 -19 30 15 17 21 30 39 30
41 0 11 -29 1 -43 -14z"/>
<path d="M786 8479 c-23 -33 -114 -98 -196 -139 -70 -35 -253 -99 -487 -170
-57 -17 -103 -35 -103 -40 0 -10 27 -3 266 70 194 60 330 114 407 163 31 20
59 37 61 37 2 0 11 -18 20 -40 36 -91 13 -182 -80 -310 -56 -78 -190 -215
-285 -292 -82 -67 -221 -85 -340 -43 -49 18 -49 18 -49 5 0 -12 85 -36 158
-45 48 -6 52 -9 46 -28 -16 -53 -80 -115 -162 -156 l-42 -21 1 -1388 c1 -763
4 -1376 8 -1362 4 15 13 -41 24 -150 29 -298 78 -599 128 -790 35 -132 71
-255 80 -272 5 -9 18 -88 29 -175 29 -224 66 -451 107 -646 19 -93 32 -171 29
-175 -3 -3 -6 5 -6 17 0 19 -4 22 -22 18 -21 -5 -21 -5 -5 7 9 7 17 19 17 27
0 11 -2 11 -10 -1 -7 -11 -8 -5 -4 20 6 33 5 34 -9 15 -8 -10 -13 -25 -10 -32
4 -9 0 -11 -11 -7 -18 7 -22 24 -6 24 6 0 10 7 10 15 0 9 -6 12 -17 8 -13 -5
-15 -2 -10 11 4 9 3 14 -2 11 -5 -3 -11 0 -14 7 -2 7 -2 2 0 -12 3 -14 9 -27
14 -28 5 -2 7 -8 4 -12 -3 -5 -3 -21 1 -35 5 -21 9 -24 16 -13 6 9 7 6 3 -9
-8 -30 4 -73 20 -67 7 3 16 1 20 -5 3 -7 0 -8 -9 -5 -11 4 -16 0 -16 -11 0 -9
4 -14 9 -10 5 3 13 0 17 -6 4 -8 3 -9 -4 -5 -7 4 -12 0 -13 -11 -1 -24 -22 36
-60 170 -30 106 -31 111 -13 124 10 7 13 13 6 13 -6 0 -16 15 -22 33 l-10 32
6 -37 c11 -79 -6 -33 -41 113 -56 237 -76 340 -70 378 3 28 3 30 -3 11 -8 -22
-9 -20 -16 22 -4 27 -4 53 0 60 4 6 3 8 -3 5 -6 -4 -19 44 -32 121 -26 144
-31 164 -38 144 -3 -7 5 -73 18 -145 13 -73 23 -152 23 -177 -1 -32 1 -39 7
-25 7 18 8 17 8 -7 1 -14 -2 -28 -6 -31 -5 -2 -2 -2 6 0 10 2 12 -5 9 -26 -2
-17 -1 -28 3 -26 10 7 21 -77 13 -101 -4 -12 -3 -15 3 -7 6 8 20 -37 42 -130
18 -78 53 -213 77 -300 34 -120 42 -162 34 -175 -9 -14 -10 -13 -5 5 5 18 3
22 -9 17 -17 -7 -22 11 -6 21 5 3 10 11 10 16 0 6 -5 7 -12 3 -7 -5 -8 -3 -3
5 10 17 -14 101 -29 101 -7 0 -17 -12 -23 -27 l-11 -28 2 29 c0 17 -5 31 -13
34 -10 3 -12 -1 -8 -17 5 -19 1 -21 -39 -21 -42 0 -44 1 -44 30 0 28 -2 30
-40 30 -25 0 -40 5 -41 13 0 6 -5 3 -10 -8 -7 -15 -8 -8 -5 28 2 26 -1 47 -6
47 -5 0 -8 20 -7 45 2 24 0 47 -4 51 -4 4 -7 -632 -7 -1414 l0 -1422 2048 2
c1126 1 1993 4 1927 7 l-121 6 -69 55 c-39 30 -92 73 -120 96 -85 70 -415 316
-618 460 -105 75 -194 138 -195 140 -2 1 1 51 7 111 29 298 36 595 21 886 -6
131 -13 246 -14 255 -2 9 -7 53 -11 97 -16 188 -49 383 -95 565 -41 159 -43
170 -31 145 6 -11 45 -108 87 -215 98 -247 238 -559 343 -765 45 -88 79 -151
75 -140 -4 11 -27 72 -51 135 -80 206 -196 550 -268 795 -54 184 -106 378
-101 382 2 2 39 -27 82 -64 307 -264 665 -520 971 -692 221 -125 218 -123 221
-152 2 -14 -20 -92 -48 -174 -104 -307 -138 -468 -147 -695 -5 -127 -3 -165
11 -212 16 -55 18 -57 94 -101 42 -25 156 -84 252 -132 96 -47 196 -101 221
-119 42 -31 47 -40 74 -127 50 -167 105 -363 105 -376 0 -7 -34 -34 -75 -60
-41 -26 -77 -53 -79 -60 -3 -7 16 3 42 21 26 18 64 43 84 55 l37 22 22 -75 22
-76 920 0 920 0 -19 23 c-10 12 -29 34 -41 48 l-24 26 36 122 c19 67 41 157
49 199 14 76 14 73 15 -171 l1 -247 218 2 217 3 62 157 c134 337 278 884 309
1173 12 112 22 89 29 -68 9 -192 0 -464 -25 -737 -18 -188 -51 -447 -66 -506
-5 -18 -2 -24 9 -24 12 0 31 47 71 168 130 397 193 747 243 1362 14 177 18
336 18 895 0 691 -5 862 -45 1408 l-20 268 20 40 c26 49 65 200 79 299 14 96
22 340 12 340 -4 0 -13 -25 -20 -55 -24 -107 -189 -308 -340 -414 l-62 -43 29
59 c95 188 183 578 170 753 -3 42 -5 39 -29 -60 -15 -58 -40 -140 -58 -184
-33 -82 -100 -210 -107 -203 -2 2 5 47 16 101 32 155 43 349 30 502 l-11 131
64 94 c121 180 217 385 273 583 14 50 32 112 40 138 l15 46 77 7 c106 9 157
22 216 51 31 16 53 21 59 15 15 -15 2 -809 -17 -981 -33 -301 -86 -601 -131
-733 -14 -40 -23 -58 -20 -42 29 183 36 234 44 325 6 58 12 206 15 330 l5 225
-14 -160 c-32 -367 -104 -649 -236 -924 -33 -68 -57 -126 -55 -128 2 -3 31 51
65 119 74 150 151 380 191 571 l30 142 -5 -95 c-12 -200 -57 -445 -112 -610
-19 -58 -36 -112 -39 -120 -16 -50 42 75 76 166 106 279 170 612 212 1104 8
92 12 312 10 605 l-1 459 58 91 c107 166 128 212 140 304 24 180 11 514 -29
782 -35 228 -45 261 -110 347 -98 130 -413 429 -441 420 -7 -2 19 -28 57 -58
94 -73 321 -301 378 -378 50 -70 57 -90 86 -246 48 -260 70 -621 51 -825 l-11
-124 -82 -130 c-45 -72 -108 -165 -139 -208 -55 -74 -60 -78 -111 -88 -121
-24 -260 -16 -360 21 -37 13 -135 123 -244 273 -117 162 -452 564 -642 772
-257 281 -333 373 -337 406 -3 18 -7 124 -10 237 -9 370 -9 364 -15 224 l-5
-131 -95 53 c-154 87 -220 106 -385 111 -131 5 -201 -1 -387 -33 -30 -5 -37
-3 -41 12 -3 13 -5 9 -6 -10 -1 -23 2 -27 16 -22 45 18 280 46 378 46 174 0
267 -27 446 -127 51 -28 79 -51 83 -65 3 -13 6 -71 6 -130 l0 -107 -42 28
c-149 98 -490 173 -773 170 l-130 -1 2 28 c1 16 -5 2 -13 -31 -8 -33 -25 -71
-37 -84 -64 -68 -245 -107 -1329 -282 -202 -32 -386 -64 -410 -70 -57 -15
-138 -12 -218 8 -88 22 -325 103 -477 164 -144 57 -473 204 -497 222 -20 14
-32 89 -42 260 l-7 117 -373 0 c-346 0 -373 -1 -378 -17 -16 -54 -99 -654
-116 -833 -6 -63 -19 -204 -30 -314 -11 -109 -19 -217 -19 -240 1 -31 17 88
28 219 1 6 22 33 47 60 24 28 77 89 116 137 40 48 73 86 75 85 1 -2 -3 -115
-9 -252 -12 -301 -4 -889 16 -1140 31 -372 78 -860 83 -865 3 -3 3 33 -1 80
-10 121 -24 408 -37 755 -16 425 -3 853 41 1335 l20 214 37 41 c138 149 270
275 294 280 20 5 33 0 50 -17 13 -13 111 -59 217 -102 105 -43 192 -79 192
-80 0 0 -9 -46 -19 -101 -11 -55 -25 -138 -31 -185 -6 -47 -22 -155 -35 -240
-78 -491 -99 -808 -92 -1390 7 -557 28 -856 103 -1450 109 -865 270 -1578 522
-2305 38 -110 72 -209 76 -220 3 -11 -12 18 -34 64 -22 45 -37 88 -33 94 4 6
1 7 -7 2 -10 -6 -12 -4 -7 9 4 9 3 15 -1 12 -13 -8 -204 440 -304 714 -75 203
-181 526 -232 700 -80 279 -206 819 -273 1170 -10 52 -19 88 -21 79 -4 -20 75
-422 134 -679 82 -360 164 -656 274 -995 136 -415 218 -819 223 -1096 1 -53 5
-95 10 -92 4 2 7 -35 7 -83 0 -48 -3 -84 -7 -81 -3 4 -6 37 -6 75 1 37 -1 55
-4 40 -4 -25 -9 -28 -43 -28 -21 0 -41 -6 -44 -12 -3 -7 -3 -3 -1 8 4 15 -2
26 -21 39 -15 9 -23 12 -19 5 4 -6 8 -39 10 -73 3 -61 3 -61 -6 -17 -5 25 -7
53 -5 63 2 9 0 17 -5 17 -5 0 -9 11 -9 24 0 47 -51 303 -100 501 -87 353 -183
626 -398 1130 -272 639 -347 886 -456 1485 -54 297 -48 275 -57 210 -28 -195
-42 -479 -43 -860 -1 -713 55 -1283 185 -1894 16 -76 27 -141 24 -144 -3 -3
-5 2 -5 11 0 9 -5 17 -10 17 -7 0 -7 -7 0 -20 6 -11 8 -25 5 -30 -3 -5 -1 -11
5 -15 5 -3 10 2 11 12 1 13 3 11 9 -7 9 -27 12 -73 3 -52 -2 6 -10 9 -16 5 -7
-4 -8 0 -4 11 5 14 3 17 -8 12 -10 -4 -15 1 -16 17 -1 16 -3 13 -10 -11 -9
-30 -12 -32 -26 -20 -14 11 -16 11 -11 -2 3 -8 13 -45 23 -82 15 -55 21 -66
31 -57 9 8 14 8 14 1 0 -6 -5 -12 -11 -14 -8 -3 -8 -16 1 -46 7 -23 16 -40 19
-38 3 2 7 -12 8 -33 l1 -36 -15 40 c-23 65 -133 429 -132 440 0 6 6 -6 13 -25
11 -31 13 -32 18 -12 4 12 2 20 -2 17 -5 -3 -12 11 -16 32 -5 28 -9 33 -14 19
-8 -24 -94 296 -170 637 -58 260 -143 708 -179 947 -11 69 -20 113 -20 97 -1
-27 -2 -27 -29 -13 -39 20 -151 140 -231 249 -121 164 -195 302 -253 468 -28
80 -32 108 -32 189 0 52 6 127 13 165 25 129 132 407 204 526 55 91 126 122
181 78 23 -18 26 -28 26 -80 l0 -59 -31 0 c-38 0 -81 -29 -108 -74 -31 -49
-25 -55 8 -9 37 51 68 73 102 73 l26 0 8 -212 c4 -117 9 -226 11 -243 1 -16 3
-57 4 -90 1 -33 4 -54 7 -46 3 7 0 124 -7 260 -23 454 -9 1332 25 1641 3 25 7
86 10 135 3 50 10 126 15 170 5 44 14 139 20 210 14 167 64 547 91 695 37 207
50 275 55 293 5 16 -10 17 -227 17 -263 0 -245 10 -161 -89 l44 -51 -39 16
c-21 9 -86 40 -144 70 -58 30 -113 54 -122 54 -9 0 -23 -9 -31 -21z m5089
-650 c49 -16 79 -36 165 -110 180 -157 430 -390 442 -412 6 -12 13 -76 16
-142 13 -357 -130 -806 -383 -1204 -36 -57 -64 -105 -62 -107 8 -8 138 210
207 346 72 143 134 290 169 404 52 170 99 505 86 619 -3 31 -2 57 3 57 4 0 20
-12 34 -27 43 -45 53 -129 52 -438 0 -218 -4 -301 -22 -430 -21 -154 -77 -459
-88 -476 -3 -5 -18 -9 -33 -9 -15 0 -110 -14 -211 -30 -101 -17 -189 -29 -196
-26 -6 2 -17 -1 -23 -7 -6 -6 13 43 43 109 112 249 192 487 226 675 16 94 19
99 20 54 l3 -50 13 75 c8 41 16 154 18 250 4 133 3 156 -4 95 -25 -229 -128
-531 -296 -867 -41 -82 -72 -148 -69 -148 13 0 209 417 255 541 27 74 49 125
50 113 1 -59 -38 -227 -85 -369 -50 -151 -161 -425 -190 -471 -10 -16 -32 -24
-92 -34 -43 -7 -81 -18 -85 -24 -5 -7 -8 -7 -8 2 0 7 -4 10 -10 7 -16 -10 -11
-23 8 -20 9 2 17 4 17 5 0 1 39 10 87 19 l87 17 -20 -20 c-11 -12 -31 -37 -43
-56 -13 -22 -33 -38 -51 -42 -22 -5 -20 -6 10 -2 97 12 245 15 303 6 45 -6 60
-6 52 2 -7 7 -67 11 -164 11 l-153 0 39 52 39 51 87 16 c127 23 364 57 368 53
2 -2 -5 -36 -17 -76 -11 -41 -18 -75 -16 -78 10 -9 98 350 122 495 8 53 20
122 25 152 l9 55 -4 -52 c-3 -42 -1 -51 11 -46 7 3 14 0 14 -5 0 -6 -6 -12
-14 -14 -11 -2 -12 -5 -1 -15 26 -24 104 296 125 517 6 63 13 138 16 167 l5
51 148 -151 c169 -175 262 -273 450 -479 73 -81 141 -150 150 -153 8 -3 46
-10 84 -15 38 -4 71 -11 75 -15 3 -3 -6 -55 -21 -116 -79 -322 -251 -640 -463
-858 l-103 -106 33 70 c38 77 59 135 86 240 10 39 32 108 49 155 17 47 30 94
30 105 0 11 -8 -5 -18 -35 -30 -95 -83 -181 -165 -267 -79 -83 -153 -149 -161
-141 -2 2 7 26 20 53 14 28 32 79 41 115 16 68 49 134 92 185 28 33 61 102 62
125 0 8 -13 -13 -29 -47 -50 -104 -184 -224 -339 -302 -51 -26 -229 -91 -248
-91 -2 0 11 31 30 69 39 77 87 229 106 336 21 122 49 205 68 205 13 0 14 2 4
9 -11 7 -8 26 16 102 28 90 47 179 38 179 -3 0 -10 -26 -16 -57 -16 -79 -69
-213 -86 -220 -8 -3 -11 -9 -8 -14 15 -24 -144 -278 -277 -444 -40 -49 -65
-84 -55 -76 15 12 23 9 73 -25 32 -21 101 -82 155 -135 74 -73 98 -103 98
-122 0 -59 -90 -260 -172 -387 l-23 -35 32 23 c94 67 254 253 289 337 l16 38
24 -29 24 -29 -10 27 c-26 73 -112 210 -159 252 -24 22 -27 36 -7 36 26 0 178
82 242 131 l65 49 -7 -38 c-12 -72 -52 -172 -89 -223 l-36 -51 49 27 c27 14
79 54 116 87 50 46 64 54 57 35 -18 -47 -90 -183 -226 -427 -158 -285 -274
-518 -339 -680 -74 -188 -182 -512 -236 -713 -87 -321 -142 -451 -258 -612
-73 -100 -146 -159 -337 -273 -308 -184 -673 -353 -1020 -472 -60 -21 -154
-57 -208 -79 -53 -22 -119 -43 -145 -47 -44 -6 -57 -2 -153 46 -380 191 -728
418 -1098 717 -291 235 -268 209 -301 344 -162 663 -290 1582 -330 2359 -12
237 -13 908 -2 894 5 -5 14 -40 21 -79 25 -147 121 -402 176 -470 l16 -20 -9
20 c-16 36 -51 188 -62 275 -7 53 -9 131 -5 206 l7 122 28 5 c15 4 92 9 171
12 l144 6 -25 -23 c-14 -13 -39 -33 -55 -46 -18 -14 2 -6 48 18 l79 40 86 -10
c104 -13 275 -41 281 -46 2 -2 -8 -13 -22 -24 -43 -34 -95 -153 -113 -260 -37
-217 15 -517 121 -694 34 -56 31 -38 -4 32 -16 31 -36 81 -44 110 l-16 52 50
47 c35 33 66 51 97 59 26 7 49 10 52 8 2 -3 14 -24 25 -47 41 -82 107 -81 153
2 l23 41 38 -19 c91 -47 178 -150 207 -247 12 -42 12 -51 -7 -107 -12 -34 -35
-86 -52 -115 l-32 -54 -75 5 c-65 3 -141 24 -235 62 -14 5 -17 5 -10 -2 6 -6
42 -23 80 -38 57 -23 86 -28 160 -29 l90 -1 41 73 c49 86 87 200 110 332 21
116 25 413 6 432 -9 9 -12 8 -12 -5 0 -29 -59 -58 -113 -55 -26 1 -52 -3 -59
-10 -15 -15 -43 -15 -70 -1 -17 9 -19 17 -14 50 5 30 1 50 -16 82 -42 81 -18
207 41 215 28 4 159 -40 216 -73 98 -56 135 -75 135 -70 0 4 15 -4 33 -17 17
-13 35 -23 38 -23 17 0 91 -70 134 -127 29 -38 45 -53 40 -38 -7 25 -58 151
-89 223 -9 20 -14 37 -11 37 3 0 33 -14 67 -31 59 -30 62 -30 76 -13 19 26 44
74 38 74 -3 0 -12 -12 -20 -27 -32 -58 -29 -58 -103 -4 -90 66 -207 129 -360
194 l-122 52 111 105 c61 58 115 106 119 108 11 4 97 -62 253 -193 66 -55 130
-109 144 -121 l24 -20 -21 -42 c-12 -23 -19 -42 -16 -42 8 0 63 123 98 215 91
241 185 710 212 1060 9 114 21 154 48 160 12 3 211 32 442 64 231 33 434 62
450 64 63 9 142 3 200 -14z m-2658 -235 c61 -24 124 -44 140 -44 15 0 60 -7
100 -15 66 -14 81 -13 205 5 73 12 152 23 175 27 l42 6 -8 -29 c-25 -87 -139
-293 -239 -431 l-46 -63 -25 17 c-272 179 -712 452 -686 426 6 -6 96 -63 200
-128 186 -116 482 -309 519 -339 17 -14 14 -42 -4 -31 -4 3 -13 -2 -20 -10 -7
-8 -9 -15 -5 -15 4 0 2 -7 -5 -15 -7 -8 -17 -12 -23 -8 -5 3 -7 1 -4 -4 4 -6
1 -16 -6 -22 -10 -8 -14 -7 -14 4 0 8 4 12 9 9 4 -3 5 1 2 9 -3 8 -1 18 5 22
6 3 11 1 11 -5 0 -6 5 -8 11 -4 8 5 8 9 -1 14 -8 5 -4 14 14 28 15 11 23 23
18 26 -5 3 -33 -25 -62 -62 -30 -37 -47 -61 -39 -55 28 23 30 0 2 -29 -27 -29
-50 -38 -37 -15 4 6 -7 -1 -24 -17 -17 -16 -30 -32 -29 -36 6 -24 -214 -186
-403 -298 -83 -48 -81 -46 36 56 136 118 257 276 339 442 50 100 60 142 16 65
-74 -127 -190 -239 -370 -357 -58 -37 -100 -68 -94 -68 16 0 176 107 253 170
36 28 89 77 119 108 l54 57 -28 -50 c-45 -80 -114 -174 -179 -242 l-61 -63
-90 8 c-90 8 -90 8 -150 -24 -68 -37 -280 -130 -321 -140 l-27 -7 6 269 c6
283 16 384 68 664 34 188 79 412 85 421 2 4 106 -36 231 -88 126 -52 278 -115
340 -139z m1513 69 c-1 -122 -48 -485 -90 -695 -44 -217 -133 -518 -169 -577
-7 -11 -32 6 -113 75 -56 49 -147 125 -200 168 -54 43 -98 80 -98 83 0 2 36
45 81 96 44 50 90 105 101 122 11 16 0 8 -24 -20 -242 -278 -358 -385 -658
-609 -8 -6 27 36 79 93 303 340 573 809 674 1172 l21 76 129 19 129 20 -6 -43
c-16 -116 -143 -398 -260 -578 -36 -55 -55 -88 -42 -73 80 90 236 392 302 583
20 61 39 112 41 114 2 3 22 8 46 12 23 3 45 7 50 8 4 0 7 -20 7 -46z m-420
-36 c0 -31 -52 -163 -106 -268 -94 -185 -322 -506 -351 -495 -7 3 -10 -1 -7
-8 3 -7 -30 -51 -73 -99 -82 -90 -353 -354 -353 -342 0 3 26 37 57 73 78 93
136 184 202 322 62 129 52 123 126 76 20 -12 13 -4 -18 25 l-47 44 20 65 c12
36 25 90 29 120 6 40 9 46 10 22 0 -18 7 -40 15 -48 12 -12 17 -2 35 74 30
129 51 258 51 316 0 28 4 57 8 63 5 7 85 25 182 42 207 34 220 35 220 18z
m-125 -368 c-50 -112 -196 -383 -231 -426 l-21 -27 -31 23 -31 22 80 102 c92
117 201 278 244 360 16 31 31 54 33 53 1 -2 -18 -50 -43 -107z m-378 -51 c-3
-7 -5 -2 -5 12 0 14 2 19 5 13 2 -7 2 -19 0 -25z m-57 -18 c-6 -11 -13 -20
-16 -20 -2 0 0 9 6 20 6 11 13 20 16 20 2 0 0 -9 -6 -20z m11 -114 c-29 -123
-29 -124 -80 -91 -22 15 -41 31 -41 35 0 3 11 17 25 30 14 13 25 28 25 34 0 5
-15 -5 -34 -23 -24 -24 -36 -29 -41 -20 -5 7 -4 10 3 5 6 -3 28 13 49 36 21
24 35 39 31 34 -5 -6 -8 -14 -8 -19 0 -17 31 16 58 62 36 62 40 35 13 -83z
m-85 -103 c24 -16 44 -31 44 -35 0 -15 -91 -214 -108 -235 l-17 -21 -95 19
c-52 10 -106 18 -120 18 -14 -1 26 -11 87 -23 62 -12 116 -25 119 -29 3 -3 -9
-27 -26 -52 -32 -47 -33 -47 -74 -40 -22 4 -99 17 -170 29 l-129 21 69 51 c82
60 260 213 324 278 24 25 46 46 49 46 2 0 23 -12 47 -27z m-236 -126 c0 -2
-10 -12 -22 -23 l-23 -19 19 23 c18 21 26 27 26 19z m453 -29 c18 -12 33 -23
35 -24 3 -2 -147 -214 -185 -261 l-18 -23 -68 21 -68 20 131 136 c71 75 130
140 130 145 0 13 9 10 43 -14z m2434 -60 c-3 -7 -5 -2 -5 12 0 14 2 19 5 13 2
-7 2 -19 0 -25z m290 -280 c-2 -13 -4 -5 -4 17 -1 22 1 32 4 23 2 -10 2 -28 0
-40z m-3301 -579 c10 -17 -13 -36 -27 -22 -12 12 -4 33 11 33 5 0 12 -5 16
-11z m3357 -96 c-7 -51 -53 -255 -59 -265 -4 -7 -45 18 -87 53 -5 3 12 35 36
70 25 35 59 90 77 122 17 31 33 57 35 57 2 0 1 -17 -2 -37z m-2730 -58 c1 -5
-6 -11 -15 -13 -11 -2 -18 3 -18 13 0 17 30 18 33 0z m2659 -240 c-2 -10 -8
-28 -13 -42 -10 -28 -20 -24 -83 30 l-40 34 23 32 23 32 46 -34 c31 -22 46
-40 44 -52z m583 -25 c-4 -6 -8 -25 -11 -43 -2 -18 -8 -45 -14 -62 -8 -24 -8
-19 -4 25 6 52 18 90 30 90 3 0 2 -5 -1 -10z m85 -173 c0 -2 -12 -14 -27 -28
l-28 -24 24 28 c23 25 31 32 31 24z m-156 -174 c-16 -45 -17 -66 -5 -59 5 4 8
-2 6 -11 -2 -10 -4 -31 -4 -46 -1 -24 -4 -27 -23 -22 -17 6 -20 4 -15 -9 4 -9
1 -16 -5 -16 -7 0 -6 -5 2 -15 7 -9 10 -19 6 -22 -4 -4 -11 -1 -16 7 -6 8 -10
10 -10 5 0 -6 5 -16 12 -23 6 -6 8 -15 4 -19 -4 -4 -11 -1 -16 7 -6 8 -10 10
-10 5 0 -6 6 -17 13 -24 10 -10 9 -11 -4 -6 -20 8 -35 -35 -16 -47 8 -5 6 -8
-6 -8 -14 0 -17 -5 -12 -21 11 -33 -2 -69 -23 -63 -14 5 -14 4 -3 -4 16 -11
24 -42 11 -42 -4 0 -11 8 -14 17 -11 28 -26 -5 -19 -41 5 -24 3 -28 -9 -23
-11 4 -14 1 -11 -13 3 -9 -6 -37 -18 -61 -13 -24 -22 -47 -21 -51 1 -5 -2 -8
-8 -8 -14 0 -13 5 15 60 14 27 25 53 25 57 -1 4 -16 -21 -34 -57 -27 -52 -32
-69 -23 -85 9 -18 9 -19 -7 -6 -14 12 -16 12 -10 -4 5 -12 4 -16 -4 -11 -19
11 -36 -32 -20 -52 9 -11 10 -14 1 -8 -12 7 -18 -5 -14 -28 1 -5 -4 -4 -11 2
-10 8 -17 4 -30 -19 -15 -26 -16 -31 -3 -35 23 -9 8 -23 -18 -17 -18 5 -20 3
-9 -8 6 -7 12 -18 12 -24 0 -5 -4 -4 -9 4 -5 7 -14 10 -21 6 -9 -6 -9 -9 1
-16 11 -7 11 -9 -1 -9 -9 0 -16 -9 -17 -20 -2 -22 8 -19 44 13 12 11 20 25 16
31 -3 6 -2 8 2 3 5 -4 18 1 29 10 12 10 8 3 -9 -15 -29 -32 -145 -130 -174
-147 -7 -4 -3 6 9 23 13 17 28 28 34 25 6 -3 8 -3 4 2 -10 11 11 47 23 40 5
-4 6 -11 3 -17 -4 -7 -2 -8 5 -4 9 6 9 11 1 21 -7 9 7 39 55 116 129 205 278
545 325 739 12 47 26 80 35 80 1 0 -3 -17 -11 -37z m563 -565 c-7 -130 -27
-247 -64 -362 -32 -101 -36 -93 -56 119 l-14 160 45 60 c24 33 54 77 66 97 11
21 23 38 25 38 2 0 1 -51 -2 -112z m-654 -13 c-3 -9 -8 -14 -10 -11 -3 3 -2 9
2 15 9 16 15 13 8 -4z m521 -246 c66 -681 89 -1175 90 -1864 0 -651 -18 -999
-75 -1425 -22 -170 -56 -350 -58 -310 0 15 -6 31 -12 37 -8 8 -7 13 2 18 7 5
10 4 5 -3 -3 -6 -2 -13 2 -16 5 -3 16 39 26 94 19 117 20 130 5 130 -6 0 -9
-7 -6 -14 4 -10 1 -13 -9 -9 -11 4 -12 9 -3 19 6 8 17 14 23 14 12 0 42 198
31 208 -3 3 -5 -7 -5 -22 0 -15 -4 -25 -9 -22 -4 3 -6 -5 -4 -18 3 -13 0 -27
-6 -30 -7 -5 -11 3 -12 18 -2 39 -3 44 -13 53 -5 4 -6 3 -3 -3 7 -13 -17 -27
-27 -17 -3 4 -6 17 -6 30 0 13 -5 23 -11 23 -5 0 -8 -4 -4 -9 3 -5 1 -12 -5
-16 -5 -3 -10 -14 -9 -23 0 -14 2 -13 8 3 5 13 8 -4 9 -47 0 -38 -5 -71 -10
-74 -7 -5 -9 10 -6 45 3 32 1 54 -6 59 -12 7 -17 54 -6 47 4 -2 2 12 -4 31 -9
28 -12 -10 -16 -198 l-6 -233 -2 275 c-1 151 -5 320 -9 374 -5 79 -4 98 6 91
10 -6 11 -3 3 11 -6 12 -6 53 -1 109 18 206 6 452 -23 480 -7 7 -9 1 -4 -20
14 -68 18 -280 7 -425 -14 -193 -22 -254 -30 -242 -3 6 -6 -18 -7 -51 -1 -65
-42 -304 -74 -428 -11 -41 -17 -58 -14 -37 3 24 0 38 -8 41 -8 3 -6 6 5 6 11
1 17 9 16 24 0 12 -3 16 -6 10 -2 -7 -10 -13 -16 -13 -7 1 -3 9 9 18 12 10 24
34 28 54 6 31 4 36 -14 41 -17 4 -19 3 -9 -9 8 -10 8 -14 0 -14 -6 0 -11 -10
-11 -22 0 -33 -11 -14 -15 25 -2 31 0 35 20 32 35 -3 42 5 50 60 l8 50 -22
-19 c-19 -17 -21 -17 -21 -3 0 10 -5 17 -10 17 -6 0 -9 -10 -7 -22 2 -13 2
-17 0 -9 -4 12 -6 12 -15 0 -6 -10 -7 -7 -3 10 5 16 4 21 -4 17 -6 -4 -11 -14
-11 -22 0 -8 -2 -14 -4 -14 -2 0 -12 -3 -21 -7 -16 -6 -17 8 -11 193 4 109 3
260 -2 334 -9 148 -5 244 9 200 6 -18 7 -15 3 13 -7 50 18 245 28 220 4 -10 5
-4 2 17 -3 19 4 132 15 250 28 302 42 546 50 894 7 307 5 719 -3 881 l-5 90
57 42 c31 23 84 68 117 100 33 32 61 58 62 58 1 -1 9 -71 17 -156z m-604 118
c0 -2 -12 -14 -27 -28 l-28 -24 24 28 c23 25 31 32 31 24z m-50 -170 c0 -2
-10 -12 -22 -23 l-23 -19 19 23 c18 21 26 27 26 19z m393 -159 c6 -228 -2
-860 -13 -1106 -29 -602 -91 -1133 -186 -1577 -35 -166 -97 -401 -102 -387 -2
7 2 28 8 47 6 19 9 43 5 54 -4 13 0 23 11 29 11 6 15 17 11 31 -3 11 -2 19 3
16 4 -2 10 12 14 33 3 20 8 48 11 62 5 23 5 22 -7 -3 -7 -16 -18 -30 -23 -30
-6 -1 -9 -6 -7 -11 2 -5 -5 -6 -14 -2 -9 3 -24 1 -33 -6 -15 -12 -15 -11 -1 6
13 17 13 19 0 14 -8 -2 -16 -19 -18 -36 -3 -31 -2 -32 29 -25 25 5 31 3 27 -8
-6 -17 -26 -19 -52 -6 -17 8 -18 5 -14 -26 2 -20 0 -33 -4 -31 -13 8 -9 -41 4
-54 9 -9 9 -15 -1 -25 -7 -6 -11 -7 -10 -2 1 6 -1 18 -5 27 -5 10 -1 61 8 115
30 188 37 260 46 483 10 239 16 291 32 268 7 -9 8 -7 3 8 -3 12 4 59 15 105
36 152 60 310 60 405 0 123 -14 129 -17 7 -6 -231 -107 -627 -253 -992 -63
-160 -112 -261 -121 -255 -5 3 -9 10 -9 15 0 6 4 8 9 5 5 -3 11 1 14 8 3 8 1
17 -6 20 -7 2 -4 5 6 5 10 1 15 6 12 11 -3 6 -1 10 4 10 6 0 11 4 11 8 0 5
-28 10 -62 11 -35 1 -64 6 -66 12 -2 5 -21 9 -43 9 -35 0 -39 2 -39 26 0 24
-3 26 -30 21 -20 -5 -30 -3 -30 6 0 8 -4 7 -10 -3 -14 -21 -12 -8 7 60 11 42
19 57 25 48 6 -8 7 -1 3 20 -4 20 -3 32 4 32 6 0 8 6 6 13 -7 17 39 179 48
170 5 -4 5 0 2 8 -3 9 12 86 33 172 21 86 35 154 31 151 -4 -2 -14 -26 -22
-52 -55 -178 -121 -381 -124 -378 -2 2 26 106 62 232 132 461 205 827 225
1134 9 125 9 125 5 -39 -3 -90 -3 -162 0 -160 19 20 145 1019 145 1156 0 13
27 38 83 76 45 31 116 85 157 119 81 69 120 98 132 98 4 0 9 -69 11 -152z
m-488 45 c-2 -10 -4 -19 -4 -21 -1 -2 -6 0 -11 3 -8 5 -7 11 1 21 15 18 18 18
14 -3z m-25 -27 c0 -2 -7 -7 -16 -10 -8 -3 -12 -2 -9 4 6 10 25 14 25 6z
m-6733 -1533 c-3 -10 -5 -2 -5 17 0 19 2 27 5 18 2 -10 2 -26 0 -35z m2171
-144 c192 -481 331 -990 385 -1407 8 -56 13 -102 11 -102 -1 0 -60 37 -132 83
-72 45 -164 103 -205 129 l-75 46 -30 99 c-51 163 -119 406 -153 541 l-32 128
36 150 c20 82 50 214 67 294 17 80 36 160 42 179 l11 34 13 -24 c7 -14 35 -81
62 -150z m-1948 151 c0 -5 -5 -10 -11 -10 -5 0 -7 5 -4 10 3 6 8 10 11 10 2 0
4 -4 4 -10z m-180 -20 c13 20 12 12 -4 -35 -17 -48 -36 -58 -35 -18 l1 28 9
-25 c7 -19 8 -15 5 19 -3 30 -2 40 5 30 8 -12 10 -12 19 1z m17 -62 c-3 -8 -6
-5 -6 6 -1 11 2 17 5 13 3 -3 4 -12 1 -19z m277 7 c-4 -8 -11 -12 -16 -9 -6 4
-5 10 3 15 19 12 19 11 13 -6z m62 -120 c-2 -5 -7 7 -11 28 -4 20 -11 40 -16
42 -4 3 -5 13 -2 23 5 11 11 1 20 -33 7 -28 11 -54 9 -60z m-336 80 c0 -8 -4
-15 -9 -15 -13 0 -22 16 -14 24 11 11 23 6 23 -9z m-37 -45 c-7 -28 -13 -25
-13 6 0 14 4 23 9 20 5 -3 7 -15 4 -26z m352 -258 c-2 -2 -7 7 -11 22 -3 14
-11 23 -17 19 -6 -3 -7 -1 -3 5 10 16 -45 181 -58 178 -6 -2 -8 -1 -3 1 4 3 7
12 6 21 0 10 -3 12 -5 6 -7 -17 -44 -4 -43 15 0 10 2 11 6 4 7 -19 33 -16 34
5 0 9 23 -48 50 -127 27 -80 47 -147 44 -149z m-302 263 c-3 -9 -8 -14 -10
-11 -3 3 -2 9 2 15 9 16 15 13 8 -4z m-26 -47 c-3 -8 -6 -5 -6 6 -1 11 2 17 5
13 3 -3 4 -12 1 -19z m303 -28 c0 -13 -1 -13 -10 0 -5 8 -10 22 -10 30 0 13 1
13 10 0 5 -8 10 -22 10 -30z m20 30 c0 -5 -2 -10 -4 -10 -3 0 -8 5 -11 10 -3
6 -1 10 4 10 6 0 11 -4 11 -10z m406 -378 l76 -154 -28 -31 c-16 -18 -32 -36
-36 -41 -12 -16 -179 551 -178 604 1 8 21 -39 45 -105 25 -66 79 -189 121
-273z m-749 331 c-3 -10 -5 -4 -5 12 0 17 2 24 5 18 2 -7 2 -21 0 -30z m399
-68 c-2 -5 -7 7 -11 28 -5 24 -13 37 -24 38 -10 0 -11 2 -3 6 6 2 12 12 13 21
0 10 7 -5 15 -33 7 -27 12 -54 10 -60z m-351 85 c3 -5 1 -10 -4 -10 -6 0 -11
5 -11 10 0 6 2 10 4 10 3 0 8 -4 11 -10z m-12 -78 c-16 -16 -16 -16 -10 1 4
10 7 28 8 40 0 22 0 22 10 -1 7 -18 5 -28 -8 -40z m332 38 c3 -5 1 -10 -4 -10
-6 0 -11 5 -11 10 0 6 2 10 4 10 3 0 8 -4 11 -10z m-358 -52 c-3 -7 -5 -2 -5
12 0 14 2 19 5 13 2 -7 2 -19 0 -25z m354 -25 c-12 -20 -14 -14 -5 12 4 9 9
14 11 11 3 -2 0 -13 -6 -23z m-151 -3 c0 -17 -7 -20 -40 -20 -28 0 -40 4 -40
14 0 8 -10 17 -22 19 -13 2 5 5 40 6 56 1 62 -1 62 -19z m216 -78 c-3 -3 -6 3
-6 14 0 14 -2 16 -9 6 -7 -11 -9 -10 -14 3 -4 10 -3 14 4 10 7 -5 8 6 5 32 -6
35 -5 34 10 -11 8 -26 13 -51 10 -54z m1391 56 c-3 -8 -6 -5 -6 6 -1 11 2 17
5 13 3 -3 4 -12 1 -19z m-1800 -25 c-3 -10 -5 -4 -5 12 0 17 2 24 5 18 2 -7 2
-21 0 -30z m1819 -50 c-3 -7 -2 -13 3 -13 5 0 11 -12 14 -27 3 -16 8 -37 12
-48 l6 -20 -11 20 c-21 42 -33 81 -31 99 2 10 -2 15 -7 12 -6 -4 -14 -1 -18 5
-4 8 -3 9 4 5 8 -4 12 0 13 11 0 14 3 12 10 -6 5 -14 7 -31 5 -38z m-1432 -33
c5 -20 3 -19 -8 5 -7 17 -16 41 -20 55 -5 20 -3 19 8 -5 7 -16 16 -41 20 -55z
m-104 62 c0 -4 -17 -6 -37 -4 -59 5 -63 10 -10 11 26 1 47 -3 47 -7z m-273
-44 c-3 -8 -6 -5 -6 6 -1 11 2 17 5 13 3 -3 4 -12 1 -19z m422 -28 c0 -9 -4
-8 -9 5 -5 11 -9 27 -9 35 0 9 4 8 9 -5 5 -11 9 -27 9 -35z m-65 -20 c5 -17 4
-20 -2 -10 -5 8 -13 26 -16 40 -5 17 -4 20 2 10 5 -8 13 -26 16 -40z m-347
-27 c-3 -10 -5 -2 -5 17 0 19 2 27 5 18 2 -10 2 -26 0 -35z m1790 18 l22 -28
-21 1 c-16 1 -22 8 -22 29 -1 15 -1 27 -1 27 1 0 11 -13 22 -29z m-1363 -116
c25 -65 43 -121 42 -123 -4 -3 -76 178 -91 228 -17 57 6 7 49 -105z m14 45 c0
-8 -6 1 -13 20 -7 19 -13 42 -13 50 0 8 6 -1 13 -20 7 -19 13 -42 13 -50z
m1366 13 c3 -10 9 -24 12 -32 5 -9 3 -11 -6 -6 -10 6 -12 2 -8 -13 4 -13 2
-20 -4 -16 -5 3 -12 -4 -15 -17 l-6 -23 -9 24 c-5 12 -6 25 -3 28 3 3 5 -1 5
-9 1 -8 7 -3 15 11 16 28 19 44 7 36 -4 -2 -8 4 -8 15 0 24 12 25 20 2z m102
-300 c-2 -2 -17 48 -32 112 -25 100 -30 114 -41 99 -7 -10 -10 -27 -7 -37 5
-17 4 -18 -9 -6 -11 10 -12 19 -4 36 6 13 14 23 20 23 5 0 7 20 3 48 -3 26 12
-25 34 -112 22 -88 38 -161 36 -163z m-1899 285 c-3 -8 -6 -5 -6 6 -1 11 2 17
5 13 3 -3 4 -12 1 -19z m373 -13 c0 -5 -5 -3 -10 5 -5 8 -10 20 -10 25 0 6 5
3 10 -5 5 -8 10 -19 10 -25z m114 -188 c-5 -16 -8 -17 -15 -6 -5 8 -9 19 -9
24 0 6 5 3 10 -5 16 -26 11 3 -15 80 -14 40 -25 78 -24 84 0 6 14 -27 30 -74
16 -46 26 -93 23 -103z m-90 123 c5 -17 4 -20 -2 -10 -5 8 -13 26 -16 40 -5
17 -4 20 2 10 5 -8 13 -26 16 -40z m-387 8 c-3 -7 -5 -2 -5 12 0 14 2 19 5 13
2 -7 2 -19 0 -25z m10 -60 c-3 -7 -5 -2 -5 12 0 14 2 19 5 13 2 -7 2 -19 0
-25z m403 -13 c0 -5 -5 -3 -10 5 -5 8 -10 20 -10 25 0 6 5 3 10 -5 5 -8 10
-19 10 -25z m1414 -119 c26 -71 45 -130 43 -132 -4 -4 -97 247 -97 262 0 17
10 -6 54 -130z m11 96 c-3 -3 -11 0 -18 7 -9 10 -8 11 6 5 10 -3 15 -9 12 -12z
m-1378 -99 c-3 -2 -12 15 -22 39 -28 69 -27 78 0 19 14 -29 24 -55 22 -58z
m43 -17 c-8 -8 -9 -6 -4 8 5 13 4 17 -3 13 -14 -9 -24 18 -16 40 5 14 10 11
21 -16 10 -25 10 -37 2 -45z m1350 -126 c29 -80 70 -190 91 -244 22 -55 39
-101 39 -103 0 -6 -37 15 -162 89 -124 74 -132 84 -120 148 12 62 86 270 93
262 4 -4 30 -72 59 -152z m757 113 c-3 -10 -5 -2 -5 17 0 19 2 27 5 18 2 -10
2 -26 0 -35z m130 -375 c-1 -79 -3 -15 -3 142 0 157 2 221 3 143 2 -79 2 -207
0 -285z m-110 390 c-3 -8 -6 -5 -6 6 -1 11 2 17 5 13 3 -3 4 -12 1 -19z m90
-10 c-3 -8 -6 -5 -6 6 -1 11 2 17 5 13 3 -3 4 -12 1 -19z m-2680 -10 c-3 -8
-6 -5 -6 6 -1 11 2 17 5 13 3 -3 4 -12 1 -19z m462 -53 c0 -5 -8 6 -19 25 -11
19 -19 40 -19 45 0 6 8 -6 19 -25 11 -19 19 -39 19 -45z m41 -7 c10 -27 16
-48 14 -48 -10 0 -54 102 -48 112 6 9 9 8 12 -2 3 -8 13 -36 22 -62z m1379
-33 c-1 -18 -27 59 -28 80 0 11 7 0 15 -25 7 -25 13 -49 13 -55z m-1872 43
c-3 -8 -6 -5 -6 6 -1 11 2 17 5 13 3 -3 4 -12 1 -19z m2570 -30 c-2 -13 -4 -5
-4 17 -1 22 1 32 4 23 2 -10 2 -28 0 -40z m-2101 -105 c-14 -27 -25 -44 -26
-40 0 4 9 26 20 48 16 30 18 44 10 58 -5 11 -10 23 -10 28 1 4 7 -4 16 -19 13
-26 13 -31 -10 -75z m1388 -3 c5 -20 3 -19 -8 5 -7 17 -16 41 -20 55 -5 20 -3
19 8 -5 7 -16 16 -41 20 -55z m55 -45 c-1 -16 -26 57 -32 95 -4 19 2 8 13 -25
11 -33 19 -64 19 -70z m668 28 c-2 -16 -4 -3 -4 27 0 30 2 43 4 28 2 -16 2
-40 0 -55z m-2482 57 c25 -11 -1 -11 -35 0 -20 6 -21 8 -5 8 11 0 29 -3 40 -8z
m70 -20 c13 -5 14 -9 5 -9 -8 0 -24 4 -35 9 -13 5 -14 9 -5 9 8 0 24 -4 35 -9z
m145 -45 c58 -19 112 -33 120 -30 11 5 12 3 3 -6 -9 -8 -39 -2 -130 29 -65 22
-113 41 -107 41 5 1 57 -15 114 -34z m5240 -235 c11 -135 38 -320 65 -434 8
-34 15 -66 15 -73 0 -7 -46 7 -112 35 -62 25 -114 47 -116 48 -2 1 10 51 27
111 36 131 76 333 90 465 14 124 14 125 18 48 1 -36 7 -126 13 -200z m-3666
180 c5 -17 4 -20 -2 -10 -5 8 -13 26 -16 40 -5 17 -4 20 2 10 5 -8 13 -26 16
-40z m45 -30 c0 -9 -4 -8 -9 5 -5 11 -9 27 -9 35 0 9 4 8 9 -5 5 -11 9 -27 9
-35z m3317 -127 c-5 -129 -25 -374 -30 -380 -3 -4 -111 29 -119 37 -5 4 -2 21
6 36 22 44 112 320 127 392 7 34 15 62 18 62 3 0 2 -66 -2 -147z m-3332 77 c5
-17 4 -20 -2 -10 -5 8 -13 26 -16 40 -5 17 -4 20 2 10 5 -8 13 -26 16 -40z
m4342 -27 c-10 -26 -18 -8 -9 23 5 21 8 24 11 11 2 -10 1 -25 -2 -34z m-4278
-83 c0 -8 -8 8 -18 35 -10 28 -18 57 -18 65 0 8 8 -7 18 -35 10 -27 18 -57 18
-65z m609 -327 c-1 -81 -3 -17 -3 142 0 160 2 226 3 148 2 -78 2 -208 0 -290z
m-647 372 c0 -5 -5 -3 -10 5 -5 8 -10 20 -10 25 0 6 5 3 10 -5 5 -8 10 -19 10
-25z m4580 21 c0 -3 -4 -8 -10 -11 -5 -3 -10 -1 -10 4 0 6 5 11 10 11 6 0 10
-2 10 -4z m-281 -26 c-10 -7 -10 -11 1 -25 11 -13 10 -19 -9 -39 -15 -15 -19
-26 -12 -31 6 -3 11 -12 11 -18 0 -7 -4 -6 -10 3 -5 8 -12 11 -16 7 -4 -3 -1
-15 7 -24 12 -17 12 -17 -5 -2 -13 12 -15 21 -7 40 6 13 15 43 21 67 7 26 15
40 22 36 7 -4 6 -9 -3 -14z m-4269 -75 c0 -5 -5 -3 -10 5 -5 8 -10 20 -10 25
0 6 5 3 10 -5 5 -8 10 -19 10 -25z m23 -24 c4 8 4 1 1 -16 -4 -23 -3 -27 5
-15 13 18 15 1 2 -18 -6 -10 -11 -5 -20 19 -13 38 -14 49 -2 30 7 -11 9 -11
14 0z m4477 -62 c-14 -24 -19 -24 -17 1 1 11 5 20 10 20 4 0 5 5 2 10 -9 15
-25 2 -25 -21 0 -36 -16 -19 -17 19 0 26 1 31 7 17 7 -19 7 -19 14 3 l8 24 14
-27 c10 -19 11 -32 4 -46z m21 48 c-10 -9 -11 -8 -5 6 3 10 9 15 12 12 3 -3 0
-11 -7 -18z m-3814 -104 c-2 -21 -4 -6 -4 32 0 39 2 55 4 38 2 -18 2 -50 0
-70z m3510 65 c-3 -8 -6 -5 -6 6 -1 11 2 17 5 13 3 -3 4 -12 1 -19z m-4172
-19 c-5 -15 -4 -19 4 -15 6 4 11 3 11 -3 0 -5 -4 -12 -9 -15 -12 -8 -22 20
-15 39 9 23 16 18 9 -6z m4784 -6 c0 -25 -1 -26 -9 -8 -12 27 -12 35 0 35 6 0
10 -12 9 -27z m-20 -21 c7 -23 6 -34 -5 -43 -19 -15 -18 -27 2 -25 9 0 19 -6
21 -14 4 -13 3 -13 -6 0 -5 8 -13 11 -17 7 -4 -3 -1 -13 5 -21 10 -12 8 -29
-10 -85 -13 -39 -25 -69 -27 -66 -2 2 3 26 13 54 9 28 13 56 9 62 -4 8 -3 9 4
5 18 -11 14 9 -8 47 l-21 35 21 5 c17 4 19 9 10 32 -11 28 -13 52 -5 43 3 -3
10 -19 14 -36z m231 -17 l-7 -50 -2 46 c0 25 2 49 6 52 10 11 11 5 3 -48z m30
-42 c-11 -17 -11 -17 -6 0 3 10 7 33 8 50 l1 32 4 -32 c2 -18 -1 -41 -7 -50z
m217 35 c-3 -7 -5 -2 -5 12 0 14 2 19 5 13 2 -7 2 -19 0 -25z m-5225 -10 c-7
-7 -12 -8 -12 -2 0 14 12 26 19 19 2 -3 -1 -11 -7 -17z m4687 -57 c-7 -39 -14
-69 -17 -67 -2 3 2 37 9 75 7 39 14 69 17 67 2 -3 -2 -37 -9 -75z m605 54 c-4
-8 -8 -15 -10 -15 -2 0 -4 7 -4 15 0 8 4 15 10 15 5 0 7 -7 4 -15z m-919 -45
c-14 -27 -28 -50 -31 -50 -2 0 0 9 6 19 5 11 7 28 4 38 -4 13 -3 14 3 5 7 -9
12 -6 21 13 6 14 14 25 17 25 3 0 -6 -22 -20 -50z m-4355 30 c0 -5 -5 -10 -11
-10 -5 0 -7 5 -4 10 3 6 8 10 11 10 2 0 4 -4 4 -10z m37 -107 c18 -48 31 -89
29 -90 -2 -2 -18 32 -36 74 -44 106 -43 103 -33 103 5 0 23 -39 40 -87z m5236
72 c-3 -9 -8 -14 -10 -11 -3 3 -2 9 2 15 9 16 15 13 8 -4z m-4656 -62 c-2 -16
-4 -5 -4 22 0 28 2 40 4 28 2 -13 2 -35 0 -50z m4601 32 c-3 -3 -9 2 -12 12
-6 14 -5 15 5 6 7 -7 10 -15 7 -18z m-266 -15 c-2 -16 -6 -30 -8 -30 -2 0 -4
14 -4 30 0 17 4 30 8 30 5 0 7 -13 4 -30z m-649 5 c-3 -9 -8 -14 -10 -11 -3 3
-2 9 2 15 9 16 15 13 8 -4z m6 -37 c-25 -47 -120 -198 -125 -198 -3 0 -1 6 3
13 4 7 34 56 67 110 32 53 60 97 63 97 2 0 -2 -10 -8 -22z m691 -48 c-6 -37
-8 -40 -9 -13 -1 29 8 68 14 61 1 -2 -1 -23 -5 -48z m-370 -75 c-13 -58 -25
-104 -27 -101 -2 2 6 52 18 110 12 58 24 104 27 102 2 -3 -6 -52 -18 -111z
m602 107 c3 8 6 6 11 -5 10 -26 -8 -29 -29 -4 -14 15 -14 18 -2 9 13 -10 17
-10 20 0z m-275 -39 c-3 -10 -5 -4 -5 12 0 17 2 24 5 18 2 -7 2 -21 0 -30z
m-4350 -35 c-2 -13 -4 -3 -4 22 0 25 2 35 4 23 2 -13 2 -33 0 -45z m4330 5
c-3 -10 -5 -2 -5 17 0 19 2 27 5 18 2 -10 2 -26 0 -35z m73 -53 c-12 -50 -24
-89 -26 -87 -3 2 6 45 18 95 12 50 24 89 26 87 3 -2 -6 -45 -18 -95z m273 75
c-3 -9 -8 -14 -10 -11 -3 3 -2 9 2 15 9 16 15 13 8 -4z m-43 -5 c0 -5 -5 -10
-11 -10 -5 0 -7 5 -4 10 3 6 8 10 11 10 2 0 4 -4 4 -10z m10 -24 c0 -11 -19
-15 -25 -6 -3 5 1 10 9 10 9 0 16 -2 16 -4z m-576 -60 c-9 -26 -18 -45 -20
-43 -2 2 3 25 12 51 9 26 18 45 20 43 2 -2 -3 -25 -12 -51z m-4077 -18 c-2
-13 -4 -5 -4 17 -1 22 1 32 4 23 2 -10 2 -28 0 -40z m4330 0 c-3 -7 -5 -2 -5
12 0 14 2 19 5 13 2 -7 2 -19 0 -25z m250 -75 c-2 -21 -4 -4 -4 37 0 41 2 58
4 38 2 -21 2 -55 0 -75z m-4590 0 c-3 -10 -5 -4 -5 12 0 17 2 24 5 18 2 -7 2
-21 0 -30z m3583 18 c-5 -11 -15 -23 -21 -27 -6 -3 -3 5 6 20 20 30 30 35 15
7z m444 -80 c-33 -82 -54 -108 -54 -63 0 13 2 14 9 4 5 -9 19 16 41 73 18 47
35 84 37 81 2 -2 -13 -45 -33 -95z m-4087 27 c-2 -13 -4 -3 -4 22 0 25 2 35 4
23 2 -13 2 -33 0 -45z m4390 30 c-3 -7 -5 -2 -5 12 0 14 2 19 5 13 2 -7 2 -19
0 -25z m-320 -10 c-3 -8 -6 -5 -6 6 -1 11 2 17 5 13 3 -3 4 -12 1 -19z m377
-12 c-3 -15 -8 -25 -11 -23 -2 3 -1 17 3 31 3 15 8 25 11 23 2 -3 1 -17 -3
-31z m291 -16 c-4 -23 -9 -39 -11 -37 -3 2 -2 23 2 46 4 23 9 40 11 37 3 -3 2
-23 -2 -46z m-4695 -70 c-7 -44 -15 -79 -17 -76 -2 2 1 40 8 85 7 44 14 79 17
76 3 -2 -1 -41 -8 -85z m3534 38 c-58 -83 -195 -256 -212 -270 -9 -7 21 33 65
88 44 56 102 131 128 168 26 36 49 66 52 66 3 0 -12 -24 -33 -52z m481 2 c-9
-41 -17 -33 -9 9 4 17 9 30 11 27 3 -2 2 -19 -2 -36z m582 -52 c-2 -18 -4 -6
-4 27 0 33 2 48 4 33 2 -15 2 -42 0 -60z m-260 50 c-3 -8 -6 -5 -6 6 -1 11 2
17 5 13 3 -3 4 -12 1 -19z m47 -22 c-3 -15 -8 -25 -11 -23 -2 3 -1 17 3 31 3
15 8 25 11 23 2 -3 1 -17 -3 -31z m290 -40 c-3 -21 -8 -35 -11 -32 -2 2 -1 20
3 40 3 21 8 35 11 32 2 -2 1 -20 -3 -40z m-4727 -8 c-3 -7 -5 -2 -5 12 0 14 2
19 5 13 2 -7 2 -19 0 -25z m4038 -56 c-17 -38 -33 -60 -21 -27 4 11 10 32 13
47 3 15 9 25 14 22 5 -3 2 -21 -6 -42z m344 -69 c-18 -54 -38 -111 -46 -128
l-14 -30 7 30 c3 17 7 36 7 43 0 6 4 12 9 12 5 0 7 15 4 33 -4 20 -3 25 2 14
6 -14 14 -1 32 57 13 42 25 74 28 72 2 -3 -11 -49 -29 -103z m258 45 c-2 -13
-4 -3 -4 22 0 25 2 35 4 23 2 -13 2 -33 0 -45z m-270 20 c-3 -7 -5 -2 -5 12 0
14 2 19 5 13 2 -7 2 -19 0 -25z m340 0 c-3 -8 -6 -5 -6 6 -1 11 2 17 5 13 3
-3 4 -12 1 -19z m-4680 -30 c-3 -7 -5 -2 -5 12 0 14 2 19 5 13 2 -7 2 -19 0
-25z m-40 -15 c-3 -10 -5 -4 -5 12 0 17 2 24 5 18 2 -7 2 -21 0 -30z m4370 5
c-3 -8 -6 -5 -6 6 -1 11 2 17 5 13 3 -3 4 -12 1 -19z m340 0 c-3 -8 -6 -5 -6
6 -1 11 2 17 5 13 3 -3 4 -12 1 -19z m-1179 -129 c-2 -4 -23 9 -47 30 l-44 38
28 37 29 38 18 -67 c10 -38 17 -71 16 -76z m-3504 77 c-3 -21 -8 -35 -11 -32
-2 2 -1 20 3 40 3 21 8 35 11 32 2 -2 1 -20 -3 -40z m4613 -18 c-2 -13 -4 -5
-4 17 -1 22 1 32 4 23 2 -10 2 -28 0 -40z m57 18 c-3 -15 -8 -25 -11 -23 -2 3
-1 17 3 31 3 15 8 25 11 23 2 -3 1 -17 -3 -31z m-4707 -28 c-3 -7 -5 -2 -5 12
0 14 2 19 5 13 2 -7 2 -19 0 -25z m4687 -42 c-3 -15 -8 -25 -11 -23 -2 3 -1
17 3 31 3 15 8 25 11 23 2 -3 1 -17 -3 -31z m-4669 -16 c-9 -41 -17 -33 -9 9
4 17 9 30 11 27 3 -2 2 -19 -2 -36z m4622 -12 c-2 -13 -4 -5 -4 17 -1 22 1 32
4 23 2 -10 2 -28 0 -40z m-4650 0 c-3 -7 -5 -2 -5 12 0 14 2 19 5 13 2 -7 2
-19 0 -25z m3353 -13 c-50 -51 -46 -49 -56 -33 -4 6 -3 8 3 5 5 -3 27 12 48
33 22 22 41 40 44 40 3 0 -15 -20 -39 -45z m-39 -2 c-12 -20 -14 -14 -5 12 4
9 9 14 11 11 3 -2 0 -13 -6 -23z m-3304 -35 c-3 -8 -6 -5 -6 6 -1 11 2 17 5
13 3 -3 4 -12 1 -19z m4630 -25 c-3 -10 -5 -2 -5 17 0 19 2 27 5 18 2 -10 2
-26 0 -35z m-4638 -13 c1 -13 0 -13 -9 0 -5 8 -9 24 -9 35 l0 20 9 -20 c5 -11
9 -27 9 -35z m4660 1 c-7 -23 -14 -39 -16 -37 -3 2 1 23 8 45 7 23 14 39 16
37 3 -2 -1 -23 -8 -45z m-1359 16 c0 -2 -12 -14 -27 -28 l-28 -24 24 28 c23
25 31 32 31 24z m1326 -109 c-14 -52 -18 -41 -9 28 5 44 8 53 13 34 3 -14 1
-42 -4 -62z m-4642 45 c-4 -16 -11 -37 -16 -48 -7 -17 -8 -16 -3 5 2 14 5 35
5 48 0 12 5 22 10 22 6 0 8 -11 4 -27z m-27 -95 c-3 -8 -6 -5 -6 6 -1 11 2 17
5 13 3 -3 4 -12 1 -19z"/>
<path d="M5020 7331 c0 -103 -81 -359 -171 -539 -37 -75 -61 -128 -52 -117 8
11 44 79 80 150 48 98 62 120 57 90 -13 -76 6 -28 22 56 9 46 27 124 40 174
24 92 42 215 30 215 -3 0 -6 -13 -6 -29z"/>
<path d="M4921 6834 c0 -11 3 -14 6 -6 3 7 2 16 -1 19 -3 4 -6 -2 -5 -13z"/>
<path d="M5115 6803 c-10 -27 -43 -97 -73 -158 -30 -60 -48 -104 -40 -97 13
10 15 8 12 -15 -2 -16 9 8 25 52 16 44 45 120 65 169 21 48 35 90 33 92 -2 3
-12 -17 -22 -43z"/>
<path d="M6091 6802 c-2 -37 -75 -249 -124 -358 -59 -134 -143 -286 -228 -412
-37 -57 -64 -100 -59 -97 35 22 223 342 296 503 35 78 44 91 45 67 0 -16 18
42 40 130 22 88 38 167 35 175 -2 8 -4 5 -5 -8z"/>
<path d="M4911 6784 c0 -11 3 -14 6 -6 3 7 2 16 -1 19 -3 4 -6 -2 -5 -13z"/>
<path d="M4886 6688 c-15 -60 -53 -175 -100 -303 -5 -13 -2 -11 8 5 18 28 101
278 111 334 12 61 0 40 -19 -36z"/>
<path d="M4746 6606 c-44 -75 -168 -237 -251 -326 -44 -47 -57 -65 -31 -40 91
86 260 300 305 388 21 40 4 23 -23 -22z"/>
<path d="M6312 6600 c0 -14 2 -19 5 -12 2 6 2 18 0 25 -3 6 -5 1 -5 -13z"/>
<path d="M4035 6501 c61 -32 143 -79 183 -104 39 -26 72 -45 72 -42 0 17 -329
205 -357 205 -5 0 42 -27 102 -59z"/>
<path d="M4970 6510 c-6 -11 -8 -20 -6 -20 3 0 10 9 16 20 6 11 8 20 6 20 -3
0 -10 -9 -16 -20z"/>
<path d="M5001 6484 c0 -11 3 -14 6 -6 3 7 2 16 -1 19 -3 4 -6 -2 -5 -13z"/>
<path d="M5140 6439 c-21 -56 -48 -96 -140 -214 -21 -26 -14 -21 20 15 29 30
63 72 77 92 14 21 29 36 33 33 8 -5 45 123 38 131 -3 2 -16 -23 -28 -57z"/>
<path d="M4884 6378 c-65 -95 -211 -264 -221 -254 -2 2 7 22 20 43 32 50 99
184 95 188 -2 2 -27 -42 -56 -98 -29 -56 -71 -126 -93 -156 -22 -29 -34 -49
-27 -45 39 23 117 99 179 172 73 88 188 252 176 252 -2 0 -34 -46 -73 -102z"/>
<path d="M6012 6440 c0 -19 2 -27 5 -17 2 9 2 25 0 35 -3 9 -5 1 -5 -18z"/>
<path d="M4986 6434 c-4 -14 -5 -28 -3 -31 3 -2 8 8 11 23 4 14 5 28 3 31 -3
2 -8 -8 -11 -23z"/>
<path d="M5760 6460 c0 -3 -7 -39 -14 -81 -16 -90 -68 -206 -138 -311 -49 -73
-53 -76 -82 -71 -37 7 -32 -2 6 -11 24 -5 31 0 72 57 24 34 65 105 91 157 l47
95 -6 -65 c-3 -44 -2 -56 4 -37 12 39 33 242 27 258 -3 8 -6 12 -7 9z"/>
<path d="M6002 6380 c0 -14 2 -19 5 -12 2 6 2 18 0 25 -3 6 -5 1 -5 -13z"/>
<path d="M4956 6345 c-9 -26 -7 -32 5 -12 6 10 9 21 6 23 -2 3 -7 -2 -11 -11z"/>
<path d="M5111 6312 c-17 -62 -75 -195 -100 -230 -26 -38 -26 -42 2 -41 16 1
18 2 5 6 -16 4 -15 8 7 41 31 45 108 239 102 255 -2 7 -10 -7 -16 -31z"/>
<path d="M5992 6330 c0 -14 2 -19 5 -12 2 6 2 18 0 25 -3 6 -5 1 -5 -13z"/>
<path d="M5981 6284 c0 -11 3 -14 6 -6 3 7 2 16 -1 19 -3 4 -6 -2 -5 -13z"/>
<path d="M4911 6233 c-10 -26 -10 -27 4 -9 8 11 15 23 15 28 0 15 -7 8 -19
-19z"/>
<path d="M5971 6244 c0 -11 3 -14 6 -6 3 7 2 16 -1 19 -3 4 -6 -2 -5 -13z"/>
<path d="M5961 6204 c0 -11 3 -14 6 -6 3 7 2 16 -1 19 -3 4 -6 -2 -5 -13z"/>
<path d="M4384 6178 l-19 -23 23 19 c12 11 22 21 22 23 0 8 -8 2 -26 -19z"/>
<path d="M4886 6183 c-6 -14 -5 -15 5 -6 7 7 10 15 7 18 -3 3 -9 -2 -12 -12z"/>
<path d="M4910 6148 c-26 -24 -32 -32 -15 -20 28 18 73 63 64 62 -2 -1 -24
-19 -49 -42z"/>
<path d="M5946 6154 c-4 -14 -5 -28 -3 -31 3 -2 8 8 11 23 4 14 5 28 3 31 -3
2 -8 -8 -11 -23z"/>
<path d="M4346 6153 c-6 -14 -5 -15 5 -6 7 7 10 15 7 18 -3 3 -9 -2 -12 -12z"/>
<path d="M5716 6129 c-3 -18 -4 -34 -2 -36 2 -3 7 10 11 27 4 17 5 34 2 36 -2
3 -7 -10 -11 -27z"/>
<path d="M4835 6100 c-3 -6 1 -7 9 -4 18 7 21 14 7 14 -6 0 -13 -4 -16 -10z"/>
<path d="M5701 6073 c-1 -6 -4 -20 -7 -30 -5 -17 -5 -17 6 0 6 10 9 23 6 30
-3 9 -5 9 -5 0z"/>
<path d="M5897 5998 c-14 -45 -25 -84 -23 -86 2 -2 16 33 31 78 15 45 25 83
23 85 -2 3 -16 -32 -31 -77z"/>
<path d="M5053 6033 c9 -2 23 -2 30 0 6 3 -1 5 -18 5 -16 0 -22 -2 -12 -5z"/>
<path d="M5128 6023 c17 -2 47 -2 65 0 17 2 3 4 -33 4 -36 0 -50 -2 -32 -4z"/>
<path d="M5338 6013 c17 -2 47 -2 65 0 17 2 3 4 -33 4 -36 0 -50 -2 -32 -4z"/>
<path d="M5652 5942 c-18 -42 -28 -72 -23 -67 12 13 63 136 58 141 -2 2 -18
-31 -35 -74z"/>
<path d="M5950 5980 c-11 -22 -18 -40 -15 -40 2 0 14 18 25 40 11 22 18 40 15
40 -2 0 -14 -18 -25 -40z"/>
<path d="M5458 6003 c6 -2 18 -2 25 0 6 3 1 5 -13 5 -14 0 -19 -2 -12 -5z"/>
<path d="M6908 5943 c7 -3 16 -2 19 1 4 3 -2 6 -13 5 -11 0 -14 -3 -6 -6z"/>
<path d="M6793 5933 c9 -2 25 -2 35 0 9 3 1 5 -18 5 -19 0 -27 -2 -17 -5z"/>
<path d="M5910 5910 c-6 -11 -8 -20 -6 -20 3 0 10 9 16 20 6 11 8 20 6 20 -3
0 -10 -9 -16 -20z"/>
<path d="M6613 5913 c9 -2 25 -2 35 0 9 3 1 5 -18 5 -19 0 -27 -2 -17 -5z"/>
<path d="M6533 5903 c9 -2 23 -2 30 0 6 3 -1 5 -18 5 -16 0 -22 -2 -12 -5z"/>
<path d="M5856 5885 c-9 -26 -7 -32 5 -12 6 10 9 21 6 23 -2 3 -7 -2 -11 -11z"/>
<path d="M5836 5835 c-9 -26 -7 -32 5 -12 6 10 9 21 6 23 -2 3 -7 -2 -11 -11z"/>
<path d="M6431 5683 c-1 -6 -4 -20 -7 -30 -5 -17 -5 -17 6 0 6 10 9 23 6 30
-3 9 -5 9 -5 0z"/>
<path d="M5915 5629 c-27 -4 -77 -17 -110 -28 -57 -20 -58 -20 -17 -16 23 3
42 3 42 0 0 -2 -34 -30 -75 -61 -75 -56 -93 -74 -54 -54 21 12 108 40 122 40
5 0 5 -5 1 -11 -4 -7 1 -7 16 1 21 11 22 10 15 -6 -77 -180 -112 -320 -121
-489 -7 -122 12 -275 40 -335 9 -19 14 -26 10 -15 -19 63 -34 158 -34 216 0
62 2 67 28 79 15 7 42 16 60 20 31 8 35 6 47 -24 29 -70 74 -81 114 -30 20 25
21 25 44 7 14 -10 42 -42 63 -72 33 -48 37 -61 35 -105 -2 -27 -12 -68 -23
-89 -30 -60 -106 -137 -135 -137 -25 0 -88 29 -138 63 l-30 21 19 -22 c25 -29
113 -72 147 -72 20 0 42 16 87 64 116 125 252 467 252 637 l0 39 -29 -32 c-22
-25 -37 -32 -67 -33 -22 0 -49 -6 -61 -13 -19 -11 -25 -10 -43 8 -16 16 -19
28 -15 54 4 19 0 56 -10 91 -34 116 -3 192 74 179 28 -5 123 -44 172 -71 5 -3
62 129 56 132 -11 7 -135 47 -183 60 -66 16 -215 18 -299 4z m-65 -480 c0 -5
-7 -9 -15 -9 -15 0 -20 12 -9 23 8 8 24 -1 24 -14z m370 -144 c0 -8 -4 -15
-10 -15 -5 0 -10 7 -10 15 0 8 5 15 10 15 6 0 10 -7 10 -15z"/>
<path d="M3235 5370 c-3 -5 -2 -10 4 -10 5 0 13 5 16 10 3 6 2 10 -4 10 -5 0
-13 -4 -16 -10z"/>
<path d="M3380 5367 c0 -2 15 -16 33 -33 l32 -29 -29 33 c-28 30 -36 37 -36
29z"/>
<path d="M5484 4519 c-4 -7 4 -20 17 -30 36 -27 43 -23 19 11 -24 34 -26 35
-36 19z"/>
<path d="M6140 4480 c0 -5 5 -10 11 -10 5 0 7 5 4 10 -3 6 -8 10 -11 10 -2 0
-4 -4 -4 -10z"/>
<path d="M3660 3783 c0 -12 3 -14 8 -7 4 7 16 14 27 17 15 4 14 5 -7 6 -21 1
-28 -4 -28 -16z"/>
<path d="M3991 3766 c2 -2 85 -20 184 -41 332 -68 584 -152 805 -265 63 -33
104 -51 91 -41 -61 47 -281 146 -466 209 -168 58 -643 164 -614 138z"/>
<path d="M3690 3720 c17 -34 41 -60 65 -72 11 -5 5 2 -12 17 -18 15 -33 32
-33 40 0 7 -7 19 -17 26 -15 13 -15 12 -3 -11z"/>
<path d="M3850 3717 c-70 -13 -52 -20 21 -9 51 8 56 7 84 -20 17 -15 46 -30
65 -33 l35 -5 -37 13 c-20 6 -50 24 -65 40 -16 15 -33 26 -39 26 -5 -1 -34 -6
-64 -12z"/>
<path d="M3728 3703 c6 -2 18 -2 25 0 6 3 1 5 -13 5 -14 0 -19 -2 -12 -5z"/>
<path d="M3815 3613 c56 -44 237 -117 379 -154 247 -63 666 -141 748 -138 18
1 -11 7 -65 14 -215 30 -643 119 -799 167 -37 11 -116 45 -175 74 -60 29 -99
46 -88 37z"/>
<path d="M5155 3330 c-16 -7 -17 -9 -3 -9 9 -1 20 4 23 9 7 11 7 11 -20 0z"/>
<path d="M5008 3313 c12 -2 32 -2 45 0 12 2 2 4 -23 4 -25 0 -35 -2 -22 -4z"/>
<path d="M3950 6786 c0 -2 8 -10 18 -17 15 -13 16 -12 3 4 -13 16 -21 21 -21
13z"/>
<path d="M3790 7099 c0 -5 5 -7 10 -4 6 3 10 8 10 11 0 2 -4 4 -10 4 -5 0 -10
-5 -10 -11z"/>
<path d="M3705 6640 c27 -12 43 -12 25 0 -8 5 -22 9 -30 9 -10 0 -8 -3 5 -9z"/>
<path d="M6990 4770 c0 -5 5 -10 11 -10 5 0 7 5 4 10 -3 6 -8 10 -11 10 -2 0
-4 -4 -4 -10z"/>
<path d="M6815 4419 c-4 -6 -5 -12 -2 -15 2 -3 7 2 10 11 7 17 1 20 -8 4z"/>
<path d="M7221 2044 c0 -11 3 -14 6 -6 3 7 2 16 -1 19 -3 4 -6 -2 -5 -13z"/>
<path d="M7613 1890 c0 -25 2 -35 4 -22 2 12 2 32 0 45 -2 12 -4 2 -4 -23z"/>
<path d="M7383 1820 c0 -25 2 -35 4 -22 2 12 2 32 0 45 -2 12 -4 2 -4 -23z"/>
<path d="M7603 1670 c0 -25 2 -35 4 -22 2 12 2 32 0 45 -2 12 -4 2 -4 -23z"/>
<path d="M7422 1670 c0 -14 2 -19 5 -12 2 6 2 18 0 25 -3 6 -5 1 -5 -13z"/>
<path d="M7456 1567 c3 -10 9 -15 12 -12 3 3 0 11 -7 18 -10 9 -11 8 -5 -6z"/>
<path d="M7358 1534 c-2 -19 -1 -37 2 -39 3 -2 7 14 8 36 3 49 -4 52 -10 3z"/>
<path d="M7592 1500 c0 -19 2 -27 5 -17 2 9 2 25 0 35 -3 9 -5 1 -5 -18z"/>
<path d="M7412 1490 c0 -14 2 -19 5 -12 2 6 2 18 0 25 -3 6 -5 1 -5 -13z"/>
<path d="M7583 1385 c0 -22 2 -30 4 -17 2 12 2 30 0 40 -3 9 -5 -1 -4 -23z"/>
<path d="M7342 1375 c0 -16 2 -22 5 -12 2 9 2 23 0 30 -3 6 -5 -1 -5 -18z"/>
<path d="M7327 1333 c-3 -5 -1 -17 4 -28 7 -17 8 -17 8 8 1 27 -4 34 -12 20z"/>
<path d="M7573 1270 c0 -25 2 -35 4 -22 2 12 2 32 0 45 -2 12 -4 2 -4 -23z"/>
<path d="M7203 1235 c0 -33 2 -45 4 -27 2 18 2 45 0 60 -2 15 -4 0 -4 -33z"/>
<path d="M7322 1250 c0 -14 2 -19 5 -12 2 6 2 18 0 25 -3 6 -5 1 -5 -13z"/>
<path d="M7221 1234 c0 -11 3 -14 6 -6 3 7 2 16 -1 19 -3 4 -6 -2 -5 -13z"/>
<path d="M7152 1900 c0 -19 2 -27 5 -17 2 9 2 25 0 35 -3 9 -5 1 -5 -18z"/>
<path d="M6992 1880 c0 -14 2 -19 5 -12 2 6 2 18 0 25 -3 6 -5 1 -5 -13z"/>
<path d="M6983 1795 c0 -27 2 -38 4 -22 2 15 2 37 0 50 -2 12 -4 0 -4 -28z"/>
<path d="M6906 1817 c3 -10 9 -15 12 -12 3 3 0 11 -7 18 -10 9 -11 8 -5 -6z"/>
<path d="M7131 1754 c0 -11 3 -14 6 -6 3 7 2 16 -1 19 -3 4 -6 -2 -5 -13z"/>
<path d="M6983 1700 c0 -25 2 -35 4 -22 2 12 2 32 0 45 -2 12 -4 2 -4 -23z"/>
<path d="M6981 1604 c0 -11 3 -14 6 -6 3 7 2 16 -1 19 -3 4 -6 -2 -5 -13z"/>
<path d="M7101 1584 c0 -11 3 -14 6 -6 3 7 2 16 -1 19 -3 4 -6 -2 -5 -13z"/>
<path d="M6977 1543 c-10 -9 -9 -83 1 -83 4 0 7 20 7 45 0 25 0 45 -1 45 0 0
-4 -3 -7 -7z"/>
<path d="M7091 1534 c0 -11 3 -14 6 -6 3 7 2 16 -1 19 -3 4 -6 -2 -5 -13z"/>
<path d="M6805 1530 c3 -5 8 -10 11 -10 2 0 4 5 4 10 0 6 -5 10 -11 10 -5 0
-7 -4 -4 -10z"/>
<path d="M6796 1495 c-9 -26 -7 -32 5 -12 6 10 9 21 6 23 -2 3 -7 -2 -11 -11z"/>
<path d="M7082 1490 c0 -14 2 -19 5 -12 2 6 2 18 0 25 -3 6 -5 1 -5 -13z"/>
<path d="M6773 1445 c-7 -8 -9 -16 -4 -19 5 -3 12 1 15 10 8 22 4 25 -11 9z"/>
<path d="M7072 1440 c0 -14 2 -19 5 -12 2 6 2 18 0 25 -3 6 -5 1 -5 -13z"/>
<path d="M6962 1400 c0 -14 2 -19 5 -12 2 6 2 18 0 25 -3 6 -5 1 -5 -13z"/>
<path d="M7061 1394 c0 -11 3 -14 6 -6 3 7 2 16 -1 19 -3 4 -6 -2 -5 -13z"/>
<path d="M6743 1373 c-15 -5 -17 -23 -4 -23 5 0 11 7 15 15 3 8 4 15 3 14 -1
0 -8 -3 -14 -6z"/>
<path d="M7052 1350 c0 -14 2 -19 5 -12 2 6 2 18 0 25 -3 6 -5 1 -5 -13z"/>
<path d="M6954 1326 c-3 -14 -4 -31 -1 -38 3 -7 6 -1 6 14 1 14 6 28 13 30 9
3 9 6 0 12 -7 4 -14 -2 -18 -18z"/>
<path d="M6688 1333 c7 -3 16 -2 19 1 4 3 -2 6 -13 5 -11 0 -14 -3 -6 -6z"/>
<path d="M6970 1286 c0 -2 7 -6 15 -10 8 -3 15 -1 15 4 0 6 -7 10 -15 10 -8 0
-15 -2 -15 -4z"/>
<path d="M6405 1240 c-3 -5 -1 -10 4 -10 6 0 11 5 11 10 0 6 -2 10 -4 10 -3 0
-8 -4 -11 -10z"/>
<path d="M2900 8464 c134 -63 393 -172 475 -200 91 -31 150 -33 405 -14 380
29 607 60 1125 154 132 25 265 47 296 51 48 5 58 10 62 28 5 19 4 20 -6 6 -7
-9 -27 -18 -45 -21 -26 -4 -32 -1 -32 14 0 17 -44 18 -1177 17 l-1178 0 75
-35z"/>
<path d="M5400 8463 c-3 -23 -2 -39 3 -34 5 5 7 24 5 42 -3 33 -4 33 -8 -8z"/>
<path d="M6770 8408 c0 -150 34 -239 163 -433 72 -107 612 -827 705 -938 95
-114 112 -121 292 -114 103 3 161 10 200 24 l55 18 8 100 c13 153 -12 550 -49
774 -6 40 -21 58 -168 206 -152 153 -309 286 -474 403 l-72 52 -330 0 -330 0
0 -92z m1075 -258 c117 -106 187 -179 181 -189 -3 -5 4 -17 17 -27 l22 -19
-19 23 c-33 38 -12 24 29 -20 24 -25 28 -32 11 -18 -26 22 -28 23 -21 5 57
-147 48 -288 -25 -377 -36 -44 -121 -90 -170 -92 -31 -1 -36 -4 -33 -21 2 -11
-12 22 -31 73 -91 245 -175 379 -355 567 -53 55 -84 90 -70 77 l27 -23 0 25
c0 15 -5 23 -11 19 -6 -4 -7 -1 -3 6 5 7 10 10 12 8 3 -2 26 15 52 39 54 49
115 69 193 62 44 -5 48 -3 37 11 -20 25 59 -40 157 -129z m272 -312 c-3 -7 -5
-2 -5 12 0 14 2 19 5 13 2 -7 2 -19 0 -25z m10 -50 c-3 -7 -5 -2 -5 12 0 14 2
19 5 13 2 -7 2 -19 0 -25z m10 -70 c-3 -8 -6 -5 -6 6 -1 11 2 17 5 13 3 -3 4
-12 1 -19z m20 -130 c-3 -7 -5 -2 -5 12 0 14 2 19 5 13 2 -7 2 -19 0 -25z"/>
<path d="M5382 8250 c0 -14 2 -19 5 -12 2 6 2 18 0 25 -3 6 -5 1 -5 -13z"/>
<path d="M1420 7003 c-1 -27 -8 -142 -16 -258 -21 -286 -30 -1184 -15 -1520
12 -265 22 -416 42 -608 21 -197 20 -103 -2 174 -31 395 -39 1499 -14 1942 9
166 19 305 22 310 2 4 -1 7 -6 7 -6 0 -11 -21 -11 -47z"/>
<path d="M1111 5377 c-1 -49 16 -82 76 -137 l48 -45 -41 45 c-62 70 -68 79
-75 129 -6 45 -6 45 -8 8z"/>
<path d="M1793 5295 c0 -22 2 -30 4 -17 2 12 2 30 0 40 -3 9 -5 -1 -4 -23z"/>
<path d="M1261 5020 c0 -25 8 -142 19 -260 11 -118 20 -225 20 -237 0 -13 3
-23 8 -23 4 0 2 57 -5 128 -8 70 -19 197 -27 282 -7 85 -14 135 -15 110z"/>
<path d="M2191 4894 c0 -11 3 -14 6 -6 3 7 2 16 -1 19 -3 4 -6 -2 -5 -13z"/>
<path d="M2202 4845 c0 -16 2 -22 5 -12 2 9 2 23 0 30 -3 6 -5 -1 -5 -18z"/>
<path d="M1150 4650 c6 -11 13 -20 16 -20 2 0 0 9 -6 20 -6 11 -13 20 -16 20
-2 0 0 -9 6 -20z"/>
<path d="M1199 4583 c18 -24 35 -43 38 -43 7 0 -34 55 -54 71 -10 8 -3 -5 16
-28z"/>
<path d="M1312 4465 c0 -16 2 -22 5 -12 2 9 2 23 0 30 -3 6 -5 -1 -5 -18z"/>
<path d="M1323 4385 c0 -22 2 -30 4 -17 2 12 2 30 0 40 -3 9 -5 -1 -4 -23z"/>
<path d="M1333 4305 c0 -22 2 -30 4 -17 2 12 2 30 0 40 -3 9 -5 -1 -4 -23z"/>
<path d="M1343 4225 c0 -22 2 -30 4 -17 2 12 2 30 0 40 -3 9 -5 -1 -4 -23z"/>
<path d="M251 3334 c0 -11 3 -14 6 -6 3 7 2 16 -1 19 -3 4 -6 -2 -5 -13z"/>
<path d="M257 3265 c-4 -8 -2 -17 3 -20 6 -4 10 3 10 14 0 25 -6 27 -13 6z"/>
<path d="M272 3180 c0 -19 2 -27 5 -17 2 9 2 25 0 35 -3 9 -5 1 -5 -18z"/>
<path d="M281 3124 c0 -11 3 -14 6 -6 3 7 2 16 -1 19 -3 4 -6 -2 -5 -13z"/>
<path d="M141 3114 c0 -11 3 -14 6 -6 3 7 2 16 -1 19 -3 4 -6 -2 -5 -13z"/>
<path d="M191 3110 c1 -8 5 -26 9 -40 l8 -25 1 25 c0 14 -4 32 -9 40 -9 13
-10 13 -9 0z"/>
<path d="M291 3054 c0 -11 3 -14 6 -6 3 7 2 16 -1 19 -3 4 -6 -2 -5 -13z"/>
<path d="M211 3024 c0 -11 3 -14 6 -6 3 7 2 16 -1 19 -3 4 -6 -2 -5 -13z"/>
<path d="M156 3013 c-6 -14 -5 -15 5 -6 7 7 10 15 7 18 -3 3 -9 -2 -12 -12z"/>
<path d="M302 2985 c0 -16 2 -22 5 -12 2 9 2 23 0 30 -3 6 -5 -1 -5 -18z"/>
<path d="M171 2974 c0 -11 3 -14 6 -6 3 7 2 16 -1 19 -3 4 -6 -2 -5 -13z"/>
<path d="M311 2934 c0 -11 3 -14 6 -6 3 7 2 16 -1 19 -3 4 -6 -2 -5 -13z"/>
<path d="M236 2915 c8 -37 14 -45 14 -19 0 10 -5 26 -10 34 -8 11 -9 7 -4 -15z"/>
<path d="M317 2880 c-3 -11 -1 -20 4 -20 5 0 9 9 9 20 0 11 -2 20 -4 20 -2 0
-6 -9 -9 -20z"/>
<path d="M10 2870 c0 -5 5 -10 10 -10 6 0 10 5 10 10 0 6 -4 10 -10 10 -5 0
-10 -4 -10 -10z"/>
<path d="M251 2844 c0 -11 3 -14 6 -6 3 7 2 16 -1 19 -3 4 -6 -2 -5 -13z"/>
<path d="M331 2824 c0 -11 3 -14 6 -6 3 7 2 16 -1 19 -3 4 -6 -2 -5 -13z"/>
<path d="M211 2804 c0 -11 3 -14 6 -6 3 7 2 16 -1 19 -3 4 -6 -2 -5 -13z"/>
<path d="M342 2770 c0 -14 2 -19 5 -12 2 6 2 18 0 25 -3 6 -5 1 -5 -13z"/>
<path d="M352 2710 c0 -14 2 -19 5 -12 2 6 2 18 0 25 -3 6 -5 1 -5 -13z"/>
<path d="M291 2694 c0 -11 3 -14 6 -6 3 7 2 16 -1 19 -3 4 -6 -2 -5 -13z"/>
<path d="M1661 2694 c0 -11 3 -14 6 -6 3 7 2 16 -1 19 -3 4 -6 -2 -5 -13z"/>
<path d="M247 2659 c4 -13 8 -18 11 -10 2 7 -1 18 -6 23 -8 8 -9 4 -5 -13z"/>
<path d="M362 2660 c0 -14 2 -19 5 -12 2 6 2 18 0 25 -3 6 -5 1 -5 -13z"/>
<path d="M1671 2654 c0 -11 3 -14 6 -6 3 7 2 16 -1 19 -3 4 -6 -2 -5 -13z"/>
<path d="M1681 2614 c0 -11 3 -14 6 -6 3 7 2 16 -1 19 -3 4 -6 -2 -5 -13z"/>
<path d="M1701 2550 c0 -8 4 -24 9 -35 5 -13 9 -14 9 -5 0 8 -4 24 -9 35 -5
13 -9 14 -9 5z"/>
<path d="M1811 2484 c0 -11 3 -14 6 -6 3 7 2 16 -1 19 -3 4 -6 -2 -5 -13z"/>
<path d="M1822 2440 c0 -14 2 -19 5 -12 2 6 2 18 0 25 -3 6 -5 1 -5 -13z"/>
<path d="M1765 2325 c4 -16 8 -32 10 -34 8 -7 35 9 35 21 0 10 -2 10 -9 -1 -7
-11 -13 -7 -25 15 l-17 29 6 -30z"/>
<path d="M2833 2010 c0 -25 2 -35 4 -22 2 12 2 32 0 45 -2 12 -4 2 -4 -23z"/>
<path d="M2701 1984 c0 -11 3 -14 6 -6 3 7 2 16 -1 19 -3 4 -6 -2 -5 -13z"/>
<path d="M2711 1934 c0 -11 3 -14 6 -6 3 7 2 16 -1 19 -3 4 -6 -2 -5 -13z"/>
</g>
</svg>
